<svg xmlns="http://www.w3.org/2000/svg" xmlns:xlink="http://www.w3.org/1999/xlink" viewBox="0 0 200 200" xml:space="preserve">
<rect style="fill: #36f;" width="200" height="200"/>
<g>
	<polygon style="fill: #fff;" points="100.1,143.6 13.9,79.5 100.1,15.5 186.2,79.5"/>
	<path style="fill: #36f;" d="M145.6,109.7c0.6-2.9,0.9-5.8,0.9-8.9c0-25.6-20.8-46.4-46.4-46.4s-46.4,20.8-46.4,46.4c0,3,0.3,6,0.9,8.9l45.5,33.8L145.6,109.7z M120.3,102.7h-5l-3.2-3.3h8.2V102.7z M120.3,93.1h-14.4l-3.2-3.3h17.6V93.1z M120.3,80.2v3.3H96.5l-3.2-3.3H120.3z M89.8,121.5h-10V80.2l40.5,41.3h-13.5l-17-17.3V121.5z"/>
	<polygon style="fill: #eee;" points="100.1,143.6 13.9,79.5 13.9,184.5 186.2,184.5 186.2,79.5"/>
	<polygon style="fill: #ccc;" points="115.9,131.8 100.1,143.6 84.6,132.1 13.8,184.5 186.3,184.5"/>
</g>
</svg>
