<svg fill="#fff" height="512" viewBox="0 0 24 24" width="512" xmlns="http://www.w3.org/2000/svg"><path d="M12 0C5.385 0 0 5.381 0 12c0 6.615 5.385 12 12 12s12-5.385 12-12c0-6.62-5.385-12-12-12zM1.21 11.999c0-1.563.333-3.048.934-4.389l5.148 14.1a10.794 10.794 0 01-6.082-9.711zM12 22.79c-1.06 0-2.081-.155-3.048-.441l3.237-9.406 3.315 9.087c.024.054.049.101.077.15-1.118.392-2.323.61-3.581.61zm1.485-15.845v-.001a22.684 22.684 0 001.233-.101c.581-.068.513-.924-.068-.891 0 0-1.747.135-2.874.135-1.06 0-2.841-.135-2.841-.135-.58-.034-.647.857-.067.891 0 0 .551.068 1.132.101l1.679 4.606-2.361 7.079L5.39 6.944c.649-.034 1.234-.101 1.234-.101.581-.068.513-.924-.068-.891 0 0-1.747.135-2.874.135-.203 0-.441-.005-.697-.014A10.781 10.781 0 0112 1.21c2.807 0 5.366 1.075 7.287 2.83a1.333 1.333 0 00-.14-.009c-1.06 0-1.81.924-1.81 1.916 0 .89.513 1.64 1.06 2.531.411.716.891 1.64.891 2.976 0 .924-.353 1.993-.823 3.489l-1.075 3.595zm7.985-.122a10.746 10.746 0 011.321 5.178c0 3.982-2.158 7.456-5.366 9.324l-.001-.001 3.295-9.528c.614-1.539.823-2.767.823-3.866a7.99 7.99 0 00-.072-1.107z"/></svg>